<?xml version="1.0" encoding="utf-8"?>
<!-- Generator: Adobe Illustrator 25.0.0, SVG Export Plug-In . SVG Version: 6.00 Build 0)  -->
<svg version="1.1" id="Layer_1" xmlns="http://www.w3.org/2000/svg" xmlns:xlink="http://www.w3.org/1999/xlink" x="0px" y="0px"
	 viewBox="0 0 1391 417" style="enable-background:new 0 0 1391 417;" xml:space="preserve">
<style type="text/css">
	.st0{fill:#FBEB00;}
	.st1{fill:#04883A;}
	.st2{fill:#201E1F;enable-background:new    ;}
	.st3{display:none;fill:#606060;}
	.st4{fill:#05883B;}
	.st5{fill:#FAEA02;}
</style>
<g>
	<rect x="679.1" y="-179.5" class="st0" width="66.8" height="66.8"/>
	<rect x="776.1" y="-194.2" class="st1" width="69.6" height="81.5"/>
	<rect x="550.9" y="-230.8" class="st2" width="84.7" height="84.7"/>
</g>
<rect x="-27.5" y="26.4" class="st3" width="1471.6" height="364.1"/>
<path class="st4" d="M236.6,267.5c-10-15.6-22.1-28.8-40.9-33.5c-13.9-3.5-24.9,3-34.4,12.5c-3.4,3.4-6.7,7-9.7,10.7
	c-2.2,2.8-4.6,5.3-5.9,9c-2,5.8,0.8,7.4,5.3,9c10.2,3.7,20.4,7.1,30.8,10.1c2.4,0.7,6.3,1.1,6.3,3.6c-0.1,2.7-4,2.3-6.3,2.5
	c-12.5,1.6-24.6-0.9-36.1-5.5c-7-2.8-9.1-2.3-13,6.3c-7.9,17.3-12.4,35.7-15.2,54.4c-0.5,3.6-1.4,7.2-2,10.8
	c-0.4,2.3-1.2,4.5-3.9,4.2c-2.5-0.3-1.9-2.8-1.8-4.5c0.4-15.1,2.4-30.1,5-45c1.7-9.9,4.3-19.5,6.6-29.1c0.9-3.5,0.1-5.6-3.3-7.6
	c-10-5.8-20.2-11.6-27.7-20.7c-13.9-16.8-17.7-35.6-10.7-56.4c3.4-10.1,9.8-18.2,16.8-26.1c9.6-10.8,21.6-17.3,35.1-21.4
	c6.7-2,7-2.3,4.2-8.5c-6.5-14.5-10.8-29.8-13.8-45.2c-3.7-18.5-6.5-37.3-7.4-56.2c-0.4-7.5-0.1-15.1-2.1-22.5
	c7,30.2,13.8,60.5,25.2,89.5c6.7,17,17.7,30.8,32.3,41.5c15.8,11.7,39.5,9.8,52.4-3.3c7.9,2.7,14.4,7.9,21.1,12.6
	c-1.7,0.9-2.6,2.5-3.5,4.1c-4.9,8.7-11.7,15.7-19.6,21.6c-16,11.9-44.5,9.7-59.4-4.2c-5.6-5.3-10.3-11.3-15.3-17
	c-3.3-3.8-6-3.8-9.4-0.1c-7.2,7.8-14.2,15.7-20,24.6c-5.8,9-10.4,18.6-11.8,29.3c-2,15.5,6.9,27.1,14.9,38.9c1.3,2,4.5,2.7,6.8,3.9
	c1.5,0.8,2.5,0.1,3.2-1.3c0.8-1.6,1.6-3.3,2.3-5c5.7-14.3,13.3-27.5,24.2-38.5c14-14,31.2-20.6,52.3-11.3
	c14,6.2,23.6,17.4,32.3,29.5c4.8,6.7,7.4,14.8,12.9,21c-0.2,1.8-0.6,3.6-2.2,4.7c-3.6,2.7-7.3,5.3-10.9,8
	C239,268.1,237.9,268.2,236.6,267.5z"/>
<path class="st4" d="M746,211.1c0-11.7,0-23.4,0-35.1c0-12.6,0.1-25.2-0.1-37.9c0-3.1,0.7-4,3.9-3.9c7.8,0.2,15.6,0.2,23.5,0
	c2.9-0.1,4,0.5,4,3.7c-0.1,40-0.1,80.1,0,120.1c0,2.9-0.5,4-3.8,4c-9.6-0.2-19.3-0.2-29,0c-3.1,0.1-4.2-1-5-3.9
	c-6.3-22.9-12.7-45.6-19.2-68.4c-0.4-1.5-0.4-3.3-2.2-4.7c0,23.8-0.2,47.3,0.1,70.8c0.1,5.4-1.5,6.6-6.5,6.3
	c-7.1-0.4-14.3-0.2-21.5-0.1c-2.6,0.1-3.4-0.7-3.3-3.3c0.1-40.4,0.1-80.7,0-121.1c0-2.6,0.7-3.4,3.3-3.4c10.1,0.2,20.3,0.2,30.5,0
	c3-0.1,3.9,1,4.6,3.7c6.1,22.9,12.4,45.7,18.6,68.6c0.4,1.5,0.9,3.1,1.3,4.6C745.5,211.2,745.8,211.2,746,211.1z"/>
<path class="st4" d="M536.9,198.8c13.4,3.1,18.7,9.4,19.3,23.2c0.3,7.3,0,14.6,0.3,21.9c0.2,6.2-0.5,12.7,6,17.2
	c-0.3,0.3-0.6,0.6-0.8,0.9c-9.1,0-18.1,0-27.2,0c-9.1,0-9,0-10.4-9.4c-1.1-7.6-0.6-15.3-0.8-22.9c-0.1-2.3,0-4.7-0.2-7
	c-1-10.5-7.5-14.8-17.8-12.1c-2.8,0.7-1.8,2.8-1.8,4.4c-0.1,14.1-0.2,28.3,0.1,42.4c0.1,3.8-1,4.7-4.7,4.6c-8.3-0.3-16.6-0.2-25,0
	c-2.7,0.1-3.7-0.6-3.7-3.5c0.1-40.2,0.1-80.4,0-120.6c0-3.5,1.5-3.6,4.1-3.6c16,0.1,32,0.1,48,0c29.1,0,37.9,18.5,34.4,42.8
	C554.9,189.1,550.2,193.7,536.9,198.8z M503.4,172.9c0,3,0,6,0,9c0,6.5,0,6.5,6.7,6.4c9.3-0.3,14.1-5.6,14.1-15.5
	c-0.1-9.8-4.3-14.3-13.8-14.3c-8.7-0.1-6.8-0.8-7,6.6C503.3,167.6,503.4,170.2,503.4,172.9z"/>
<path class="st4" d="M799.9,198.2c0-19.9,0.1-39.9-0.1-59.8c0-3.2,0.8-4.2,4.1-4.1c14,0.2,28,0.1,41.9,0.1
	c25.9,0,37.5,9.3,41.2,34.8c3.1,21.6,3.4,43.4-1.3,64.9c-4,18.2-15.7,27.5-34.4,27.9c-16,0.3-32,0-47.9,0.2c-3.5,0-3.6-1.4-3.6-4.1
	C800,238.1,799.9,218.1,799.9,198.2z M833.1,198.3c0,12,0,23.9,0,35.9c0,1.3-0.8,3,1.3,3.8c8,3,17.2-2,18.4-10.7
	c2.4-18.5,2.3-37.1,0.4-55.6c-1.2-11.5-4.4-13.4-16.1-13.4c-3.4,0-4.1,1.1-4.1,4.2C833.2,174.4,833.1,186.4,833.1,198.3z"/>
<path class="st5" d="M1087.3,198c-0.5,12.2-0.5,24.2-3.7,35.8c-5.1,19-16,28.2-35.7,29.9c-6.6,0.6-13.3,0.3-19.9-1
	c-12.7-2.5-21.6-9.8-26.4-21.9c-3.3-8.4-4.7-17.3-5.3-26.2c-1.1-16.6-1.2-33.2,2.4-49.6c4.7-21.8,17.6-32.3,40-32.8
	c5.8-0.1,11.6,0.2,17.4,1.4c17.6,3.9,25.1,16.6,28.5,32.8C1086.9,177.1,1086.9,187.7,1087.3,198z M1030.8,198.2
	c0,8.3-0.1,16.6,0,24.9c0.1,4.2,0.7,8.3,2.1,12.2c1.4,4.1,4.1,6.1,8.6,6.1c4.4,0,7.3-2,8.5-6.1c0.8-2.7,1.4-5.5,1.7-8.2
	c1.7-16.5,1.1-33.1,0.7-49.7c-0.1-5.7-0.4-11.6-2.7-17.1c-1.5-3.7-4.3-5.2-8.2-5.2c-3.9,0-6.8,1.5-8.2,5.2c-0.7,1.8-1.2,3.8-1.6,5.7
	C1029.8,176.6,1030.9,187.4,1030.8,198.2z"/>
<path class="st5" d="M1373.8,197.2c-0.1,13.2-0.4,25.1-3.5,36.8c-5.1,19-16.1,28.2-35.7,29.8c-6.7,0.6-13.3,0.3-19.9-1
	c-15.4-3-24.6-12.8-28.2-27.6c-5.9-24.2-6-48.8-0.2-73c4.5-18.8,14.9-27.3,34.2-29.5c7.3-0.8,14.6-0.5,21.9,1
	c17.8,3.8,25.5,16.5,28.9,32.9C1373.6,177.1,1373.8,187.8,1373.8,197.2z M1317.6,198.3c0,8.5-0.1,16.9,0,25.4
	c0.1,3.8,0.7,7.6,1.9,11.2c1.7,5,4.6,6.8,9.9,6.4c5.3-0.4,8.1-4,9-12.5c1.8-17.9,1.3-35.8,0.7-53.7c-0.2-5.1-0.5-10.3-2.6-15.1
	c-1.5-3.4-4.1-5-7.8-5c-3.9-0.1-6.9,1.1-8.4,4.9c-0.8,2-1.4,4.1-1.8,6.2C1316.5,176.8,1317.7,187.6,1317.6,198.3z"/>
<path class="st4" d="M426.3,251.8c-9.5,12.5-22.3,13.2-35.3,11.7c-16.3-1.8-24.8-10.3-27.6-27.4c-3.7-22.8-4-45.7-0.1-68.4
	c3.9-22.4,15.7-32.9,38.2-35c6.3-0.6,12.7-0.4,18.9,0.9c18,3.5,31,21.5,28.8,39.4c-0.3,2.2-1.3,2.3-2.9,2.2c-8.8,0-17.7-0.1-26.5,0
	c-2.1,0-2.9-0.6-3-2.8c-0.2-3.3-0.5-6.6-1.1-9.9c-0.8-4.2-3-7.4-7.9-7.6c-5.3-0.2-8.3,1.8-10.1,7.1c-1.7,5.1-2,10.5-2.1,15.7
	c-0.4,16.3-0.9,32.6,0.6,48.8c0.3,3,0.8,5.9,1.8,8.7c1.3,3.9,4,5.9,8.2,6c4.1,0.1,7.2-1.4,8.8-5.2c2.7-6.1,2.6-12.6,3-19.1
	c0.2-2.5-1.7-1.9-3.1-2c-8.8-0.5-8.8-0.5-8.8-9.3c0-2.8,0.2-5.7-0.1-8.5c-0.3-3.5,0.5-4.9,4.5-4.8c11.6,0.3,23.3,0.2,35,0.1
	c2.7,0,3.7,0.6,3.7,3.6c-0.1,20.8-0.1,41.5,0,62.3c0,2.9-0.8,3.7-3.6,3.6c-4.8-0.2-9.7-0.4-14.5,0c-4.1,0.3-5.3-1.3-5-5
	C426.4,255.4,426.3,253.6,426.3,251.8z"/>
<path class="st4" d="M569.6,262c3.2-13.2,6.3-25.9,9.4-38.6c6.9-28.3,14-56.7,20.7-85c0.8-3.4,2.1-4.1,5.3-4.1
	c11.5,0.2,23,0.1,34.5,0c2.3,0,3.5,0.4,4.1,2.9c10,41.4,20.2,82.8,30.4,124.7c-11.4,0-22.5,0-33.5,0c-2.1,0-2.3-1.3-2.5-2.9
	c-0.8-5.4-1.8-10.8-2.5-16.2c-0.3-2.3-1.2-3-3.5-2.9c-6.7,0.2-13.3,0.2-20,0c-2.7-0.1-3.8,0.7-4.1,3.5c-0.5,5.1-1.4,10.2-2.3,15.3
	c-0.3,1.5-0.1,3.3-2.7,3.3C592.1,261.9,581.1,262,569.6,262z M622.1,162.1c-0.2,0-0.5,0.1-0.7,0.1c-2.7,16.1-5.4,32.3-8.3,48.4
	c-0.7,3.8,0.3,5,4.1,4.6c3.5-0.3,7-0.2,10.5,0c2.5,0.1,3.4-0.3,2.9-3.3c-1.8-9.6-3.2-19.3-4.9-28.9C624.6,176,623.4,169,622.1,162.1
	z"/>
<path class="st5" d="M1156.6,212.7c0,14.9-0.2,29.9,0.1,44.8c0.1,3.9-1.2,4.7-4.8,4.6c-8-0.3-16-0.3-24,0c-3.9,0.2-4.6-1.2-4.6-4.8
	c0.1-29.7,0-59.5,0.2-89.2c0-4.5-1.1-6.1-5.7-5.7c-5.1,0.4-10.3,0-15.5,0.1c-2.9,0.1-4.2-0.6-4.1-3.8c0.2-7,0.2-14,0-20.9
	c0-2.6,0.7-3.4,3.4-3.4c25.6,0.1,51.3,0.1,76.9,0c2.5,0,3.1,0.9,3.1,3.2c-0.1,7.3-0.1,14.6,0,21.9c0,2.5-0.9,3.1-3.2,3.1
	c-5.8-0.1-11.7,0.2-17.5-0.1c-3.5-0.2-4.5,0.9-4.5,4.4C1156.8,182.1,1156.6,197.4,1156.6,212.7z"/>
<path class="st5" d="M1246.6,212.1c0,15.3-0.1,30.6,0.1,45.8c0,3.3-1,4.2-4.2,4.1c-8.1-0.2-16.3-0.3-24.5,0c-3.8,0.1-4.7-1-4.7-4.7
	c0.2-29.7,0-59.5,0.2-89.2c0-4.4-0.9-6.2-5.7-5.8c-5,0.4-10-0.1-15,0.2c-3.3,0.2-4.8-0.6-4.6-4.3c0.3-6.6,0.2-13.3,0-19.9
	c-0.1-2.9,0.7-4,3.8-4c25.3,0.1,50.6,0.1,75.9,0c2.8,0,3.7,0.8,3.6,3.7c-0.2,7-0.2,14,0,20.9c0.1,2.9-0.9,3.7-3.7,3.6
	c-5.5-0.2-11,0.2-16.5-0.1c-3.8-0.2-5.1,0.8-5,4.9C1246.7,182.2,1246.6,197.2,1246.6,212.1z"/>
<path class="st5" d="M909.9,198.1c0-19.8,0.1-39.5-0.1-59.3c0-3.9,1.1-4.7,4.8-4.6c8,0.3,16,0.3,24,0c3.9-0.2,4.6,1.1,4.6,4.8
	c-0.1,30.1,0,60.1-0.2,90.2c0,4.4,0.9,6,5.7,5.8c10.5-0.4,21,0,31.4-0.2c3.4-0.1,4.2,1.1,4.1,4.3c-0.2,6.3-0.2,12.6,0,18.9
	c0.1,2.9-0.5,4.1-3.8,4c-22.3-0.1-44.6-0.2-66.9,0c-3.5,0-3.6-1.5-3.6-4.2C909.9,238,909.9,218.1,909.9,198.1z"/>
<path class="st5" d="M243.4,158.8c-6.7-4.8-13.2-9.9-21.1-12.6c-3-2.5-5.8-5.1-8.9-7.4c-1.7-1.3-3-2.7-3.9-4.6l-0.1,0.1
	c7.7,0.8,15.3,1.7,23,2.5c6.5,1.8,13,3.5,19.6,5.3c8.4,3.7,17,7.1,24.9,12c13.6,8.4,24.5,19.5,30,34.4c6.1,16.5,6.2,33-2.9,49.2
	c-8.6,15.4-21,25.8-37.3,32.1c-2.4,0.9-4.4,2.9-6.6,4.4c-4.9,1.2-9.8,2.5-14.5,4.6c-7.5-0.9-14.3,2.5-21.4,3.7
	c-3.8,0.6-7.5,0.8-12.1,1.2c2.3-2.8,4.6-4,7-5.3c6-3.2,12.9-5.2,17.5-10.8c1.3,0.7,2.4,0.6,3.6-0.3c3.6-2.7,7.3-5.3,10.9-8
	c1.5-1.1,2-2.9,2.2-4.7c2.8,0.9,4.3-1.3,5.8-2.8c5-4.9,8.4-10.9,12.4-16.6c8.3-11.9,8.6-24.8,5.6-38c-2.9-12.6-11.1-22.1-20.7-30.1
	C252.5,163.8,248.9,159.5,243.4,158.8z"/>
<path class="st4" d="M209.5,134.2c-1.6-1.8-3.1-0.1-4.4,0.4c-13.2,4.2-25.2,2.8-35.5-7.3c-10.4-10.1-13-30.7-5.3-42.9
	c9.5-15.1,24.1-20.9,39.1-14.9c14.6,5.9,23.1,20.6,20.9,38.5c-1.2,10.1-7.4,17.1-13.9,24.1C209.7,132.7,208.4,132.9,209.5,134.2
	C209.4,134.2,209.5,134.2,209.5,134.2z"/>
<path class="st4" d="M251.9,142.1c-6.5-1.8-13-3.5-19.6-5.3c14-16.5,23.5-35.5,31.5-55.4c4.3-10.7,6.1-22.1,10.8-32.6
	c0.4-1,0.4-2.7,2-2.2c1.5,0.4,1.2,1.9,0.9,2.9c-2,9.1-2.5,18.4-4.9,27.4c-5.2,20-10.9,39.9-19,59.1C253,137.9,252.6,140,251.9,142.1
	z"/>
<path class="st4" d="M245.6,278.7c4.6-2.1,9.6-3.3,14.5-4.6c3.2,8.5,6.1,17.1,8.4,26c5.3,20.6,9.2,41.5,9.8,63c0,0-0.1,0.1-0.2,0.2
	c0-0.2,0.1-0.3,0.1-0.5c-4.6-14-9.2-27.9-13.8-41.9c-4.2-13-9.7-25.4-16.6-37.2C246.9,282.1,245.7,280.6,245.6,278.7z"/>
</svg>
